<svg width="110" height="128" viewBox="0 0 110 128" fill="none" xmlns="http://www.w3.org/2000/svg">
<path d="M37 106L56 127H77.5L59.5 107C59.5 107 54.4243 107.557 50.5 107.5C45.5569 107.428 37 106 37 106Z" fill="#FFCB3E" stroke="black"/>
<path d="M95 82.5V105L108.5 93.5L95 82.5Z" fill="#FFCB3E" stroke="black"/>
<path d="M23 127H48L29 106L35 98.5C35 98.5 45.8411 102.177 53 102C59.8181 101.831 70 98 70 98V86H75V108.5L93 93.5L85.5 87.5C85.5 87.5 92.4509 81.1111 95.5 76C97.7856 72.1688 98.8175 69.8016 100 65.5C101.141 61.3497 101.271 58.8656 101.495 54.5935L101.5 54.5C101.643 51.7701 101.844 50.212 101.5 47.5C101.011 43.6403 100.213 41.493 98.5 38C96.8304 34.5961 95.6609 32.7006 93 30C89.731 26.6822 87.2724 25.3551 83 23.5C79.8262 22.1219 77.9055 21.6119 74.5 21C68.9267 19.9986 65.5176 19.7267 60 21C55.653 22.0031 53.236 23.0617 49.5 25.5C47.176 27.0168 45.951 28.0264 44 30C39.8092 34.2393 37.817 37.3226 36 43C35.5092 44.5336 35.2053 45.403 35 47C34.7759 48.743 34.4335 49.8365 35 51.5C35.6691 53.4649 36.7515 54.3814 38.5 55.5C40.2173 56.5986 43.5 57 43.5 57H75.5V61.5L70.5 66H37.5C30 66 27 59.5 26 56.5C25 53.5 24.5 48 26 43C27.5 38 30.0914 31.6863 35 26C40.3101 19.8486 44.4364 16.9712 52 14C58.4538 11.4647 62.5662 11.0399 69.5 11C74.6104 10.9706 82.5 12.5 82.5 12.5C82.5 12.5 73.646 5.69655 67 3.5C59.0085 0.858729 53.8566 0.996382 45.5 2C37.5893 2.95006 32.9835 4.16427 26 8C17.2833 12.7877 12.551 16.9332 7.5 25.5C3.83061 31.7235 1.5 43 1.5 43C1.5 43 0.212795 53.7881 1.5 60.5C2.72254 66.8746 4.33927 70.3307 7.5 76C9.82129 80.1636 14.5 86 14.5 86L3 104L23 127Z" fill="#FFCB3E"/>
<path d="M101.5 54.5C101.643 51.7701 101.844 50.212 101.5 47.5C101.011 43.6403 100.213 41.493 98.5 38C96.8304 34.5961 95.6609 32.7006 93 30C89.731 26.6822 87.2724 25.3551 83 23.5C79.8262 22.1219 77.9055 21.6119 74.5 21C68.9266 19.9986 65.5176 19.7267 60 21C55.653 22.0031 53.236 23.0617 49.5 25.5C47.176 27.0168 45.951 28.0264 44 30C39.8092 34.2393 37.817 37.3226 36 43C35.5092 44.5336 35.2053 45.403 35 47C34.7759 48.743 34.4335 49.8365 35 51.5C35.6691 53.4649 36.7515 54.3814 38.5 55.5C40.2173 56.5986 43.5 57 43.5 57H75.5V61.5L70.5 66M101.5 54.5L101.495 54.5935M101.5 54.5C101.498 54.5312 101.497 54.5624 101.495 54.5935M70.5 66C70.5 66 45 66 37.5 66M70.5 66H37.5M37.5 66C30 66 27 59.5 26 56.5C25 53.5 24.5 48 26 43C27.5 38 30.0914 31.6863 35 26C40.3101 19.8486 44.4364 16.9712 52 14C58.4538 11.4647 62.5662 11.0399 69.5 11C74.6104 10.9706 82.5 12.5 82.5 12.5C82.5 12.5 73.646 5.69655 67 3.5C59.0085 0.858729 53.8566 0.996382 45.5 2C37.5893 2.95006 32.9835 4.16427 26 8C17.2833 12.7877 12.551 16.9332 7.5 25.5C3.83061 31.7235 1.5 43 1.5 43C1.5 43 0.212795 53.7881 1.5 60.5C2.72254 66.8746 4.33927 70.3307 7.5 76C9.82129 80.1636 14.5 86 14.5 86L3 104L23 127H48L29 106L35 98.5C35 98.5 45.8411 102.177 53 102C59.8181 101.831 70 98 70 98V86H75V108.5L93 93.5L85.5 87.5C85.5 87.5 92.4509 81.1111 95.5 76C97.7856 72.1688 98.8175 69.8016 100 65.5C101.141 61.3497 101.271 58.8656 101.495 54.5935" stroke="black"/>
<path d="M61.5 41H74C74 41 75.3148 39.2967 75.5 38C75.762 36.1662 75.1445 34.7334 74.5 34C73.8555 33.2666 72.9164 32.3366 72 32C70.9003 31.596 69.0479 31.9761 68 32.5C67 33 65.5905 34.4092 64 36.5C62.7828 38.1 61.5 41 61.5 41Z" fill="black" stroke="black"/>
</svg>
