<svg width="28" height="32" viewBox="0 0 28 32" fill="none" xmlns="http://www.w3.org/2000/svg">
<g clip-path="url(#clip0_10_2)">
<path d="M9.41818 26.5L14.2545 31.75H19.7273L15.1455 26.75C15.1455 26.75 13.8535 26.8893 12.8545 26.875C11.5963 26.857 9.41818 26.5 9.41818 26.5Z" fill="#3EA8FF" stroke="black"/>
<path d="M24.1818 20.625V26.25L27.6182 23.375L24.1818 20.625Z" fill="#3EA8FF" stroke="black"/>
<path d="M5.85454 31.75H12.2182L7.38181 26.5L8.90909 24.625C8.90909 24.625 11.6686 25.5442 13.4909 25.5C15.2264 25.4577 17.8182 24.5 17.8182 24.5V21.5H19.0909V27.125L23.6727 23.375L21.7636 21.875C21.7636 21.875 23.533 20.2778 24.3091 19C24.8909 18.0422 25.1535 17.4504 25.4545 16.375C25.745 15.3374 25.7781 14.7164 25.8351 13.6484L25.8364 13.625C25.8728 12.9425 25.9239 12.553 25.8364 11.875C25.7119 10.9101 25.5088 10.3732 25.0727 9.5C24.6477 8.64902 24.35 8.17515 23.6727 7.5C22.8406 6.67055 22.2148 6.33877 21.1273 5.875C20.3194 5.53047 19.8305 5.40297 18.9636 5.25C17.545 4.99965 16.6772 4.93167 15.2727 5.25C14.1662 5.50077 13.551 5.76542 12.6 6.375C12.0084 6.7542 11.6966 7.0066 11.2 7.5C10.1332 8.55982 9.62614 9.33065 9.16363 10.75C9.0387 11.1334 8.96135 11.3507 8.90909 11.75C8.85204 12.1857 8.76489 12.4591 8.90909 12.875C9.0794 13.3662 9.35492 13.5953 9.8 13.875C10.2371 14.1496 11.0727 14.25 11.0727 14.25H19.2182V15.375L17.9455 16.5H9.54545C7.63636 16.5 6.87272 14.875 6.61818 14.125C6.36363 13.375 6.23636 12 6.61818 10.75C7 9.5 7.65963 7.92157 8.90909 6.5C10.2607 4.96215 11.3111 4.2428 13.2364 3.5C14.8791 2.86617 15.9259 2.75997 17.6909 2.75C18.9917 2.74265 21 3.125 21 3.125C21 3.125 18.7463 1.42414 17.0545 0.875C15.0203 0.214682 13.7089 0.249095 11.5818 0.5C9.56818 0.737515 8.3958 1.04107 6.61818 2C4.39938 3.19692 3.1948 4.2333 1.90909 6.375C0.97506 7.93087 0.381814 10.75 0.381814 10.75C0.381814 10.75 0.0541618 13.447 0.381814 15.125C0.693006 16.7186 1.10454 17.5827 1.90909 19C2.49996 20.0409 3.69091 21.5 3.69091 21.5L0.763632 26L5.85454 31.75Z" fill="#3EA8FF"/>
<path d="M25.8364 13.625C25.8728 12.9425 25.9239 12.553 25.8364 11.875C25.7119 10.9101 25.5088 10.3732 25.0727 9.5C24.6477 8.64902 24.35 8.17515 23.6727 7.5C22.8406 6.67055 22.2148 6.33877 21.1273 5.875C20.3194 5.53047 19.8305 5.40297 18.9636 5.25C17.5449 4.99965 16.6772 4.93167 15.2727 5.25C14.1662 5.50077 13.551 5.76542 12.6 6.375C12.0084 6.7542 11.6966 7.0066 11.2 7.5C10.1332 8.55982 9.62614 9.33065 9.16363 10.75C9.0387 11.1334 8.96134 11.3507 8.90909 11.75C8.85204 12.1857 8.76489 12.4591 8.90909 12.875C9.0794 13.3662 9.35492 13.5953 9.8 13.875C10.2371 14.1496 11.0727 14.25 11.0727 14.25H19.2182V15.375L17.9454 16.5M25.8364 13.625L25.8351 13.6484M25.8364 13.625C25.8358 13.6328 25.8356 13.6406 25.8351 13.6484M17.9454 16.5C17.9454 16.5 11.4545 16.5 9.54545 16.5M17.9454 16.5H9.54545M25.8351 13.6484C25.7781 14.7164 25.745 15.3374 25.4545 16.375C25.1535 17.4504 24.8909 18.0422 24.3091 19C23.533 20.2778 21.7636 21.875 21.7636 21.875L23.6727 23.375L19.0909 27.125V21.5H17.8182V24.5C17.8182 24.5 15.2264 25.4577 13.4909 25.5C11.6686 25.5442 8.90909 24.625 8.90909 24.625L7.38181 26.5L12.2182 31.75H5.85454L0.763632 26L3.6909 21.5C3.6909 21.5 2.49996 20.0409 1.90909 19C1.10454 17.5827 0.693006 16.7186 0.381814 15.125C0.0541618 13.447 0.381814 10.75 0.381814 10.75C0.381814 10.75 0.97506 7.93087 1.90909 6.375C3.1948 4.2333 4.39938 3.19692 6.61818 2C8.3958 1.04107 9.56818 0.737515 11.5818 0.5C13.7089 0.249095 15.0203 0.214682 17.0545 0.875C18.7462 1.42414 21 3.125 21 3.125C21 3.125 18.9917 2.74265 17.6909 2.75C15.9259 2.75997 14.8791 2.86617 13.2364 3.5C11.3111 4.2428 10.2607 4.96215 8.90909 6.5C7.65962 7.92157 7 9.5 6.61818 10.75C6.23636 12 6.36363 13.375 6.61818 14.125C6.87272 14.875 7.63636 16.5 9.54545 16.5" stroke="black"/>
<path d="M15.6545 10.25H18.8364C18.8364 10.25 19.171 9.82418 19.2182 9.50001C19.2849 9.04156 19.1277 8.68336 18.9636 8.50001C18.7996 8.31666 18.5605 8.08416 18.3273 8.00001C18.0473 7.89901 17.5758 7.99403 17.3091 8.12501C17.0545 8.25001 16.6958 8.60231 16.2909 9.12501C15.9811 9.52501 15.6545 10.25 15.6545 10.25Z" fill="black" stroke="black"/>
</g>
<defs>
<clipPath id="clip0_10_2">
<rect width="28" height="32" fill="white"/>
</clipPath>
</defs>
</svg>
